<?xml version="1.0" standalone="no"?>
<!DOCTYPE svg PUBLIC "-//W3C//DTD SVG 1.1//EN" "http://www.w3.org/Graphics/SVG/1.1/DTD/svg11.dtd">
<svg t="1726464554433" class="icon" viewBox="0 0 1024 1024" version="1.1" xmlns="http://www.w3.org/2000/svg" p-id="1550">
    <style>
        .small {
        font: 280px sans-serif;
        font-weight: bold;
        }
    </style>
    <path fill="#b5b5b5" d="M32.935673 0.998051 32.935673 1023.001949 32.935673 0.998051Z" opacity="0.3" p-id="1551"></path><path fill="#b5b5b5" d="M64.873294 0.998051 64.873294 1023.001949 64.873294 0.998051Z" opacity="1" p-id="1552"></path><path fill="#b5b5b5" d="M96.810916 0.998051 96.810916 1023.001949 96.810916 0.998051Z" opacity="0.3" p-id="1553"></path><path fill="#b5b5b5" d="M128.748538 0.998051 128.748538 1023.001949 128.748538 0.998051Z" opacity="1" p-id="1554"></path><path fill="#b5b5b5" d="M160.68616 0.998051 160.68616 1023.001949 160.68616 0.998051Z" opacity="0.3" p-id="1555"></path><path fill="#b5b5b5" d="M192.623782 0.998051 192.623782 1023.001949 192.623782 0.998051Z" opacity="1" p-id="1556"></path><path fill="#b5b5b5" d="M224.561404 0.998051 224.561404 1023.001949 224.561404 0.998051Z" opacity="0.3" p-id="1557"></path><path fill="#b5b5b5" d="M256.499025 0.998051 256.499025 1023.001949 256.499025 0.998051Z" opacity="1" p-id="1558"></path><path fill="#b5b5b5" d="M288.436647 0.998051 288.436647 1023.001949 288.436647 0.998051Z" opacity="0.3" p-id="1559"></path><path fill="#b5b5b5" d="M320.374269 0.998051 320.374269 1023.001949 320.374269 0.998051Z" opacity="1" p-id="1560"></path><path fill="#b5b5b5" d="M352.311891 0.998051 352.311891 1023.001949 352.311891 0.998051Z" opacity="0.3" p-id="1561"></path><path fill="#b5b5b5" d="M384.249513 0.998051 384.249513 1023.001949 384.249513 0.998051Z" opacity="1" p-id="1562"></path><path fill="#b5b5b5" d="M416.187135 0.998051 416.187135 1023.001949 416.187135 0.998051Z" opacity="0.3" p-id="1563"></path><path fill="#b5b5b5" d="M448.124756 0.998051 448.124756 1023.001949 448.124756 0.998051Z" opacity="1" p-id="1564"></path><path fill="#b5b5b5" d="M480.062378 0.998051 480.062378 1023.001949 480.062378 0.998051Z" opacity="0.3" p-id="1565"></path><path fill="#b5b5b5" d="M512 0.998051 512 1023.001949 512 0.998051Z" opacity="1" p-id="1566"></path><path fill="#b5b5b5" d="M543.937622 0.998051 543.937622 1023.001949 543.937622 0.998051Z" opacity="0.3" p-id="1567"></path><path fill="#b5b5b5" d="M575.875244 0.998051 575.875244 1023.001949 575.875244 0.998051Z" opacity="1" p-id="1568"></path><path fill="#b5b5b5" d="M607.812865 0.998051 607.812865 1023.001949 607.812865 0.998051Z" opacity="0.3" p-id="1569"></path><path fill="#b5b5b5" d="M639.750487 0.998051 639.750487 1023.001949 639.750487 0.998051Z" opacity="1" p-id="1570"></path><path fill="#b5b5b5" d="M671.688109 0.998051 671.688109 1023.001949 671.688109 0.998051Z" opacity="0.3" p-id="1571"></path><path fill="#b5b5b5" d="M703.625731 0.998051 703.625731 1023.001949 703.625731 0.998051Z" opacity="1" p-id="1572"></path><path fill="#b5b5b5" d="M735.563353 0.998051 735.563353 1023.001949 735.563353 0.998051Z" opacity="0.3" p-id="1573"></path><path fill="#b5b5b5" d="M767.500975 0.998051 767.500975 1023.001949 767.500975 0.998051Z" opacity="1" p-id="1574"></path><path fill="#b5b5b5" d="M799.438596 0.998051 799.438596 1023.001949 799.438596 0.998051Z" opacity="0.3" p-id="1575"></path><path fill="#b5b5b5" d="M831.376218 0.998051 831.376218 1023.001949 831.376218 0.998051Z" opacity="1" p-id="1576"></path><path fill="#b5b5b5" d="M863.31384 0.998051 863.31384 1023.001949 863.31384 0.998051Z" opacity="0.3" p-id="1577"></path><path fill="#b5b5b5" d="M895.251462 0.998051 895.251462 1023.001949 895.251462 0.998051Z" opacity="1" p-id="1578"></path><path fill="#b5b5b5" d="M927.189084 0.998051 927.189084 1023.001949 927.189084 0.998051Z" opacity="0.3" p-id="1579"></path><path fill="#b5b5b5" d="M959.126706 0.998051 959.126706 1023.001949 959.126706 0.998051Z" opacity="1" p-id="1580"></path><path fill="#b5b5b5" d="M991.064327 0.998051 991.064327 1023.001949 991.064327 0.998051Z" opacity="0.3" p-id="1581"></path><path fill="#b5b5b5" d="M0.998051 32.935673 1023.001949 32.935673 0.998051 32.935673Z" opacity="0.3" p-id="1582"></path><path fill="#b5b5b5" d="M0.998051 64.873294 1023.001949 64.873294 0.998051 64.873294Z" opacity="1" p-id="1583"></path><path fill="#b5b5b5" d="M0.998051 96.810916 1023.001949 96.810916 0.998051 96.810916Z" opacity="0.3" p-id="1584"></path><path fill="#b5b5b5" d="M0.998051 128.748538 1023.001949 128.748538 0.998051 128.748538Z" opacity="1" p-id="1585"></path><path fill="#b5b5b5" d="M0.998051 160.68616 1023.001949 160.68616 0.998051 160.68616Z" opacity="0.3" p-id="1586"></path><path fill="#b5b5b5" d="M0.998051 192.623782 1023.001949 192.623782 0.998051 192.623782Z" opacity="1" p-id="1587"></path><path fill="#b5b5b5" d="M0.998051 224.561404 1023.001949 224.561404 0.998051 224.561404Z" opacity="0.3" p-id="1588"></path><path fill="#b5b5b5" d="M0.998051 256.499025 1023.001949 256.499025 0.998051 256.499025Z" opacity="1" p-id="1589"></path><path fill="#b5b5b5" d="M0.998051 288.436647 1023.001949 288.436647 0.998051 288.436647Z" opacity="0.3" p-id="1590"></path><path fill="#b5b5b5" d="M0.998051 320.374269 1023.001949 320.374269 0.998051 320.374269Z" opacity="1" p-id="1591"></path><path fill="#b5b5b5" d="M0.998051 352.311891 1023.001949 352.311891 0.998051 352.311891Z" opacity="0.3" p-id="1592"></path><path fill="#b5b5b5" d="M0.998051 384.249513 1023.001949 384.249513 0.998051 384.249513Z" opacity="1" p-id="1593"></path><path fill="#b5b5b5" d="M0.998051 416.187135 1023.001949 416.187135 0.998051 416.187135Z" opacity="0.3" p-id="1594"></path><path fill="#b5b5b5" d="M0.998051 448.124756 1023.001949 448.124756 0.998051 448.124756Z" opacity="1" p-id="1595"></path><path fill="#b5b5b5" d="M0.998051 480.062378 1023.001949 480.062378 0.998051 480.062378Z" opacity="0.3" p-id="1596"></path><path fill="#b5b5b5" d="M0.998051 512 1023.001949 512 0.998051 512Z" opacity="1" p-id="1597"></path><path fill="#b5b5b5" d="M0.998051 543.937622 1023.001949 543.937622 0.998051 543.937622Z" opacity="0.3" p-id="1598"></path><path fill="#b5b5b5" d="M0.998051 575.875244 1023.001949 575.875244 0.998051 575.875244Z" opacity="1" p-id="1599"></path><path fill="#b5b5b5" d="M0.998051 607.812865 1023.001949 607.812865 0.998051 607.812865Z" opacity="0.3" p-id="1600"></path><path fill="#b5b5b5" d="M0.998051 639.750487 1023.001949 639.750487 0.998051 639.750487Z" opacity="1" p-id="1601"></path><path fill="#b5b5b5" d="M0.998051 671.688109 1023.001949 671.688109 0.998051 671.688109Z" opacity="0.3" p-id="1602"></path><path fill="#b5b5b5" d="M0.998051 703.625731 1023.001949 703.625731 0.998051 703.625731Z" opacity="1" p-id="1603"></path><path fill="#b5b5b5" d="M0.998051 735.563353 1023.001949 735.563353 0.998051 735.563353Z" opacity="0.3" p-id="1604"></path><path fill="#b5b5b5" d="M0.998051 767.500975 1023.001949 767.500975 0.998051 767.500975Z" opacity="1" p-id="1605"></path><path fill="#b5b5b5" d="M0.998051 799.438596 1023.001949 799.438596 0.998051 799.438596Z" opacity="0.3" p-id="1606"></path><path fill="#b5b5b5" d="M0.998051 831.376218 1023.001949 831.376218 0.998051 831.376218Z" opacity="1" p-id="1607"></path><path fill="#b5b5b5" d="M0.998051 863.31384 1023.001949 863.31384 0.998051 863.31384Z" opacity="0.3" p-id="1608"></path><path fill="#b5b5b5" d="M0.998051 895.251462 1023.001949 895.251462 0.998051 895.251462Z" opacity="1" p-id="1609"></path><path fill="#b5b5b5" d="M0.998051 927.189084 1023.001949 927.189084 0.998051 927.189084Z" opacity="0.3" p-id="1610"></path><path fill="#b5b5b5" d="M0.998051 959.126706 1023.001949 959.126706 0.998051 959.126706Z" opacity="1" p-id="1611"></path><path fill="#b5b5b5" d="M0.998051 991.064327 1023.001949 991.064327 0.998051 991.064327Z" opacity="0.3" p-id="1612"></path><path fill="#b5b5b5" d="M384.249513 586.520452c0 0 203.546448-122.121481 318.144624-73.8817 23.755602-36.197302 47.155899-75.189146 70.065154-114.997396-112.107041-27.466355-260.45929-2.746635-260.45929-2.746635s189.841216-113.89954 306.068211-78.247173c23.304483-42.025918 45.964226-83.478955 67.823532-122.065591-92.59515-6.255782-182.266012 8.687033-182.266012 8.687033s118.915743-71.348647 226.136327-83.435041c33.732117-54.75306 65.042963-97.689201 93.239891-118.835899-559.906433 0-894.253411 638.752437-1022.003899 1022.003899l63.875244 0 191.625731-319.376218c0 0 63.875244 63.875244 255.500975 0 45.385357-15.128452 90.770713-57.140398 135.307727-113.711906-112.396476-28.498339-263.058214-3.393372-263.058214-3.393372z" p-id="1613"></path>
    <text fill="#b5b5b5" x="440" y="960" class="small">RGB</text>
</svg>